<?xml version="1.0" encoding="UTF-8" standalone="no"?>
<!DOCTYPE svg PUBLIC "-//W3C//DTD SVG 1.1//EN"
 "http://www.w3.org/Graphics/SVG/1.1/DTD/svg11.dtd">
<!-- Generated by graphviz version 2.47.0 (20210316.0004)
 -->
<!-- Title: dependencies Pages: 1 -->
<svg width="559pt" height="284pt"
 viewBox="0.00 0.00 559.00 284.00" xmlns="http://www.w3.org/2000/svg" xmlns:xlink="http://www.w3.org/1999/xlink">
<g id="graph0" class="graph" transform="scale(1 1) rotate(0) translate(4 280)">
<title>dependencies</title>
<polygon fill="white" stroke="transparent" points="-4,4 -4,-280 555,-280 555,4 -4,4"/>
<text text-anchor="start" x="254.51" y="-42.4" font-family="sans-serif" font-weight="bold" font-size="14.00">Legend</text>
<polygon fill="#ffffb3" stroke="transparent" points="41.5,-10 41.5,-30 61.5,-30 61.5,-10 41.5,-10"/>
<text text-anchor="start" x="65.13" y="-15.4" font-family="sans-serif" font-size="14.00"> &#160;Declarations</text>
<polygon fill="#8dd3c7" stroke="transparent" points="154.5,-10 154.5,-30 174.5,-30 174.5,-10 154.5,-10"/>
<text text-anchor="start" x="178.23" y="-15.4" font-family="sans-serif" font-size="14.00"> &#160;Module</text>
<polygon fill="#80b1d3" stroke="transparent" points="240.5,-10 240.5,-30 260.5,-30 260.5,-10 240.5,-10"/>
<text text-anchor="start" x="264.28" y="-15.4" font-family="sans-serif" font-size="14.00"> &#160;Bootstrap</text>
<polygon fill="#fdb462" stroke="transparent" points="337.5,-10 337.5,-30 357.5,-30 357.5,-10 337.5,-10"/>
<text text-anchor="start" x="361.17" y="-15.4" font-family="sans-serif" font-size="14.00"> &#160;Providers</text>
<polygon fill="#fb8072" stroke="transparent" points="433.5,-10 433.5,-30 453.5,-30 453.5,-10 433.5,-10"/>
<text text-anchor="start" x="457.23" y="-15.4" font-family="sans-serif" font-size="14.00"> &#160;Exports</text>
<g id="clust1" class="cluster">
<title>cluster_SharedModule</title>
<polygon fill="none" stroke="black" stroke-dasharray="1,5" points="8,-70 8,-268 543,-268 543,-70 8,-70"/>
</g>
<g id="clust5" class="cluster">
<title>cluster_SharedModule_imports</title>
<polygon fill="none" stroke="black" points="291,-78 291,-130 535,-130 535,-78 291,-78"/>
</g>
<g id="clust2" class="cluster">
<title>cluster_SharedModule_declarations</title>
<polygon fill="none" stroke="black" points="16,-78 16,-130 283,-130 283,-78 16,-78"/>
</g>
<g id="clust6" class="cluster">
<title>cluster_SharedModule_exports</title>
<polygon fill="none" stroke="black" points="136,-208 136,-260 410,-260 410,-208 136,-208"/>
</g>
<!-- NavbarComponent -->
<g id="node1" class="node">
<title>NavbarComponent</title>
<polygon fill="#ffffb3" stroke="black" points="275.03,-122 152.97,-122 152.97,-86 275.03,-86 275.03,-122"/>
<text text-anchor="middle" x="214" y="-99.8" font-family="Times,serif" font-size="14.00">NavbarComponent</text>
</g>
<!-- SharedModule -->
<g id="node3" class="node">
<title>SharedModule</title>
<polygon fill="#8dd3c7" stroke="black" points="319.42,-187 316.42,-191 295.42,-191 292.42,-187 220.58,-187 220.58,-151 319.42,-151 319.42,-187"/>
<text text-anchor="middle" x="270" y="-164.8" font-family="Times,serif" font-size="14.00">SharedModule</text>
</g>
<!-- NavbarComponent&#45;&gt;SharedModule -->
<g id="edge1" class="edge">
<title>NavbarComponent&#45;&gt;SharedModule</title>
<path fill="none" stroke="black" d="M248.03,-122.11C248.03,-122.11 248.03,-140.99 248.03,-140.99"/>
<polygon fill="black" stroke="black" points="244.53,-140.99 248.03,-150.99 251.53,-140.99 244.53,-140.99"/>
</g>
<!-- ErrorComponent -->
<g id="node2" class="node">
<title>ErrorComponent</title>
<polygon fill="#ffffb3" stroke="black" points="134.37,-122 23.63,-122 23.63,-86 134.37,-86 134.37,-122"/>
<text text-anchor="middle" x="79" y="-99.8" font-family="Times,serif" font-size="14.00">ErrorComponent</text>
</g>
<!-- ErrorComponent&#45;&gt;SharedModule -->
<g id="edge2" class="edge">
<title>ErrorComponent&#45;&gt;SharedModule</title>
<path fill="none" stroke="black" d="M79,-122.11C79,-141.34 79,-169 79,-169 79,-169 210.32,-169 210.32,-169"/>
<polygon fill="black" stroke="black" points="210.32,-172.5 220.32,-169 210.32,-165.5 210.32,-172.5"/>
</g>
<!-- NavbarComponent  -->
<g id="node6" class="node">
<title>NavbarComponent </title>
<polygon fill="#fb8072" stroke="black" points="402.03,-252 275.97,-252 275.97,-216 402.03,-216 402.03,-252"/>
<text text-anchor="middle" x="339" y="-229.8" font-family="Times,serif" font-size="14.00">NavbarComponent </text>
</g>
<!-- SharedModule&#45;&gt;NavbarComponent  -->
<g id="edge5" class="edge">
<title>SharedModule&#45;&gt;NavbarComponent </title>
<path fill="none" stroke="black" stroke-dasharray="5,2" d="M297.6,-187.11C297.6,-187.11 297.6,-205.99 297.6,-205.99"/>
<polygon fill="black" stroke="black" points="294.1,-205.99 297.6,-215.99 301.1,-205.99 294.1,-205.99"/>
</g>
<!-- ErrorComponent  -->
<g id="node7" class="node">
<title>ErrorComponent </title>
<polygon fill="#fb8072" stroke="black" points="258.37,-252 143.63,-252 143.63,-216 258.37,-216 258.37,-252"/>
<text text-anchor="middle" x="201" y="-229.8" font-family="Times,serif" font-size="14.00">ErrorComponent </text>
</g>
<!-- SharedModule&#45;&gt;ErrorComponent  -->
<g id="edge6" class="edge">
<title>SharedModule&#45;&gt;ErrorComponent </title>
<path fill="none" stroke="black" stroke-dasharray="5,2" d="M239.49,-187.11C239.49,-187.11 239.49,-205.99 239.49,-205.99"/>
<polygon fill="black" stroke="black" points="235.99,-205.99 239.49,-215.99 242.99,-205.99 235.99,-205.99"/>
</g>
<!-- CommonModule -->
<g id="node4" class="node">
<title>CommonModule</title>
<polygon fill="#8dd3c7" stroke="black" points="526.67,-122 523.67,-126 502.67,-126 499.67,-122 415.33,-122 415.33,-86 526.67,-86 526.67,-122"/>
<text text-anchor="middle" x="471" y="-99.8" font-family="Times,serif" font-size="14.00">CommonModule</text>
</g>
<!-- CommonModule&#45;&gt;SharedModule -->
<g id="edge3" class="edge">
<title>CommonModule&#45;&gt;SharedModule</title>
<path fill="none" stroke="black" d="M471,-122.11C471,-141.34 471,-169 471,-169 471,-169 329.43,-169 329.43,-169"/>
<polygon fill="black" stroke="black" points="329.43,-165.5 319.43,-169 329.43,-172.5 329.43,-165.5"/>
</g>
<!-- RouterModule -->
<g id="node5" class="node">
<title>RouterModule</title>
<polygon fill="#8dd3c7" stroke="black" points="396.65,-122 393.65,-126 372.65,-126 369.65,-122 299.35,-122 299.35,-86 396.65,-86 396.65,-122"/>
<text text-anchor="middle" x="348" y="-99.8" font-family="Times,serif" font-size="14.00">RouterModule</text>
</g>
<!-- RouterModule&#45;&gt;SharedModule -->
<g id="edge4" class="edge">
<title>RouterModule&#45;&gt;SharedModule</title>
<path fill="none" stroke="black" d="M309.19,-122.11C309.19,-122.11 309.19,-140.99 309.19,-140.99"/>
<polygon fill="black" stroke="black" points="305.69,-140.99 309.19,-150.99 312.69,-140.99 305.69,-140.99"/>
</g>
</g>
</svg>
