<?xml version="1.0" encoding="UTF-8" standalone="no"?>
<!DOCTYPE svg PUBLIC "-//W3C//DTD SVG 1.1//EN"
 "http://www.w3.org/Graphics/SVG/1.1/DTD/svg11.dtd">
<!-- Generated by graphviz version 2.47.0 (20210316.0004)
 -->
<!-- Title: dependencies Pages: 1 -->
<svg width="979pt" height="211pt"
 viewBox="0.00 0.00 979.00 211.00" xmlns="http://www.w3.org/2000/svg" xmlns:xlink="http://www.w3.org/1999/xlink">
<g id="graph0" class="graph" transform="scale(1 1) rotate(0) translate(4 207)">
<title>dependencies</title>
<polygon fill="white" stroke="transparent" points="-4,4 -4,-207 975,-207 975,4 -4,4"/>
<text text-anchor="start" x="464.51" y="-42.4" font-family="sans-serif" font-weight="bold" font-size="14.00">Legend</text>
<polygon fill="#ffffb3" stroke="transparent" points="251.5,-10 251.5,-30 271.5,-30 271.5,-10 251.5,-10"/>
<text text-anchor="start" x="275.13" y="-15.4" font-family="sans-serif" font-size="14.00"> &#160;Declarations</text>
<polygon fill="#8dd3c7" stroke="transparent" points="364.5,-10 364.5,-30 384.5,-30 384.5,-10 364.5,-10"/>
<text text-anchor="start" x="388.23" y="-15.4" font-family="sans-serif" font-size="14.00"> &#160;Module</text>
<polygon fill="#80b1d3" stroke="transparent" points="450.5,-10 450.5,-30 470.5,-30 470.5,-10 450.5,-10"/>
<text text-anchor="start" x="474.28" y="-15.4" font-family="sans-serif" font-size="14.00"> &#160;Bootstrap</text>
<polygon fill="#fdb462" stroke="transparent" points="547.5,-10 547.5,-30 567.5,-30 567.5,-10 547.5,-10"/>
<text text-anchor="start" x="571.17" y="-15.4" font-family="sans-serif" font-size="14.00"> &#160;Providers</text>
<polygon fill="#fb8072" stroke="transparent" points="643.5,-10 643.5,-30 663.5,-30 663.5,-10 643.5,-10"/>
<text text-anchor="start" x="667.23" y="-15.4" font-family="sans-serif" font-size="14.00"> &#160;Exports</text>
<g id="clust1" class="cluster">
<title>cluster_PagesModule</title>
<polygon fill="none" stroke="black" stroke-dasharray="1,5" points="8,-70 8,-195 963,-195 963,-70 8,-70"/>
</g>
<g id="clust2" class="cluster">
<title>cluster_PagesModule_declarations</title>
<polygon fill="none" stroke="black" points="268,-78 268,-130 955,-130 955,-78 268,-78"/>
</g>
<g id="clust7" class="cluster">
<title>cluster_PagesModule_imports</title>
<polygon fill="none" stroke="black" points="16,-78 16,-130 260,-130 260,-78 16,-78"/>
</g>
<!-- HomeComponent -->
<g id="node1" class="node">
<title>HomeComponent</title>
<polygon fill="#ffffb3" stroke="black" points="946.55,-122 831.45,-122 831.45,-86 946.55,-86 946.55,-122"/>
<text text-anchor="middle" x="889" y="-99.8" font-family="Times,serif" font-size="14.00">HomeComponent</text>
</g>
<!-- PagesModule -->
<g id="node5" class="node">
<title>PagesModule</title>
<polygon fill="#8dd3c7" stroke="black" points="490.21,-187 487.21,-191 466.21,-191 463.21,-187 397.79,-187 397.79,-151 490.21,-151 490.21,-187"/>
<text text-anchor="middle" x="444" y="-164.8" font-family="Times,serif" font-size="14.00">PagesModule</text>
</g>
<!-- HomeComponent&#45;&gt;PagesModule -->
<g id="edge1" class="edge">
<title>HomeComponent&#45;&gt;PagesModule</title>
<path fill="none" stroke="black" d="M889,-122.28C889,-143.32 889,-175 889,-175 889,-175 500.36,-175 500.36,-175"/>
<polygon fill="black" stroke="black" points="500.36,-171.5 490.36,-175 500.36,-178.5 500.36,-171.5"/>
</g>
<!-- SearchImageComponent -->
<g id="node2" class="node">
<title>SearchImageComponent</title>
<polygon fill="#ffffb3" stroke="black" points="813.4,-122 658.6,-122 658.6,-86 813.4,-86 813.4,-122"/>
<text text-anchor="middle" x="736" y="-99.8" font-family="Times,serif" font-size="14.00">SearchImageComponent</text>
</g>
<!-- SearchImageComponent&#45;&gt;PagesModule -->
<g id="edge2" class="edge">
<title>SearchImageComponent&#45;&gt;PagesModule</title>
<path fill="none" stroke="black" d="M736,-122.02C736,-139.37 736,-163 736,-163 736,-163 500.27,-163 500.27,-163"/>
<polygon fill="black" stroke="black" points="500.27,-159.5 490.27,-163 500.27,-166.5 500.27,-159.5"/>
</g>
<!-- DropdownCategoriesComponent -->
<g id="node3" class="node">
<title>DropdownCategoriesComponent</title>
<polygon fill="#ffffb3" stroke="black" points="640.57,-122 439.43,-122 439.43,-86 640.57,-86 640.57,-122"/>
<text text-anchor="middle" x="540" y="-99.8" font-family="Times,serif" font-size="14.00">DropdownCategoriesComponent</text>
</g>
<!-- DropdownCategoriesComponent&#45;&gt;PagesModule -->
<g id="edge3" class="edge">
<title>DropdownCategoriesComponent&#45;&gt;PagesModule</title>
<path fill="none" stroke="black" d="M464.78,-122.11C464.78,-122.11 464.78,-140.99 464.78,-140.99"/>
<polygon fill="black" stroke="black" points="461.28,-140.99 464.78,-150.99 468.28,-140.99 461.28,-140.99"/>
</g>
<!-- CardModalComponent -->
<g id="node4" class="node">
<title>CardModalComponent</title>
<polygon fill="#ffffb3" stroke="black" points="421.59,-122 276.41,-122 276.41,-86 421.59,-86 421.59,-122"/>
<text text-anchor="middle" x="349" y="-99.8" font-family="Times,serif" font-size="14.00">CardModalComponent</text>
</g>
<!-- CardModalComponent&#45;&gt;PagesModule -->
<g id="edge4" class="edge">
<title>CardModalComponent&#45;&gt;PagesModule</title>
<path fill="none" stroke="black" d="M409.72,-122.11C409.72,-122.11 409.72,-140.99 409.72,-140.99"/>
<polygon fill="black" stroke="black" points="406.22,-140.99 409.72,-150.99 413.22,-140.99 406.22,-140.99"/>
</g>
<!-- CommonModule -->
<g id="node6" class="node">
<title>CommonModule</title>
<polygon fill="#8dd3c7" stroke="black" points="251.67,-122 248.67,-126 227.67,-126 224.67,-122 140.33,-122 140.33,-86 251.67,-86 251.67,-122"/>
<text text-anchor="middle" x="196" y="-99.8" font-family="Times,serif" font-size="14.00">CommonModule</text>
</g>
<!-- CommonModule&#45;&gt;PagesModule -->
<g id="edge5" class="edge">
<title>CommonModule&#45;&gt;PagesModule</title>
<path fill="none" stroke="black" d="M196,-122.02C196,-139.37 196,-163 196,-163 196,-163 387.64,-163 387.64,-163"/>
<polygon fill="black" stroke="black" points="387.64,-166.5 397.64,-163 387.64,-159.5 387.64,-166.5"/>
</g>
<!-- SharedModule -->
<g id="node7" class="node">
<title>SharedModule</title>
<polygon fill="#8dd3c7" stroke="black" points="122.42,-122 119.42,-126 98.42,-126 95.42,-122 23.58,-122 23.58,-86 122.42,-86 122.42,-122"/>
<text text-anchor="middle" x="73" y="-99.8" font-family="Times,serif" font-size="14.00">SharedModule</text>
</g>
<!-- SharedModule&#45;&gt;PagesModule -->
<g id="edge6" class="edge">
<title>SharedModule&#45;&gt;PagesModule</title>
<path fill="none" stroke="black" d="M73,-122.28C73,-143.32 73,-175 73,-175 73,-175 387.76,-175 387.76,-175"/>
<polygon fill="black" stroke="black" points="387.76,-178.5 397.76,-175 387.76,-171.5 387.76,-178.5"/>
</g>
</g>
</svg>
