<?xml version="1.0" encoding="UTF-8" standalone="no"?>
<!DOCTYPE svg PUBLIC "-//W3C//DTD SVG 1.1//EN"
 "http://www.w3.org/Graphics/SVG/1.1/DTD/svg11.dtd">
<!-- Generated by graphviz version 2.47.0 (20210316.0004)
 -->
<!-- Title: dependencies Pages: 1 -->
<svg width="1558pt" height="425pt"
 viewBox="0.00 0.00 1558.00 425.00" xmlns="http://www.w3.org/2000/svg" xmlns:xlink="http://www.w3.org/1999/xlink">
<g id="graph0" class="graph" transform="scale(1 1) rotate(0) translate(4 421)">
<title>dependencies</title>
<polygon fill="white" stroke="transparent" points="-4,4 -4,-421 1554,-421 1554,4 -4,4"/>
<text text-anchor="start" x="754.01" y="-42.4" font-family="sans-serif" font-weight="bold" font-size="14.00">Legend</text>
<polygon fill="#ffffb3" stroke="transparent" points="541,-10 541,-30 561,-30 561,-10 541,-10"/>
<text text-anchor="start" x="564.63" y="-15.4" font-family="sans-serif" font-size="14.00"> &#160;Declarations</text>
<polygon fill="#8dd3c7" stroke="transparent" points="654,-10 654,-30 674,-30 674,-10 654,-10"/>
<text text-anchor="start" x="677.73" y="-15.4" font-family="sans-serif" font-size="14.00"> &#160;Module</text>
<polygon fill="#80b1d3" stroke="transparent" points="740,-10 740,-30 760,-30 760,-10 740,-10"/>
<text text-anchor="start" x="763.78" y="-15.4" font-family="sans-serif" font-size="14.00"> &#160;Bootstrap</text>
<polygon fill="#fdb462" stroke="transparent" points="837,-10 837,-30 857,-30 857,-10 837,-10"/>
<text text-anchor="start" x="860.67" y="-15.4" font-family="sans-serif" font-size="14.00"> &#160;Providers</text>
<polygon fill="#fb8072" stroke="transparent" points="933,-10 933,-30 953,-30 953,-10 933,-10"/>
<text text-anchor="start" x="956.73" y="-15.4" font-family="sans-serif" font-size="14.00"> &#160;Exports</text>
<g id="clust1" class="cluster">
<title>cluster_AppModule</title>
<polygon fill="none" stroke="black" stroke-dasharray="1,5" points="224,-146 224,-409 893,-409 893,-146 224,-146"/>
</g>
<g id="clust2" class="cluster">
<title>cluster_AppModule_declarations</title>
<polygon fill="none" stroke="black" points="763,-219 763,-271 885,-271 885,-219 763,-219"/>
</g>
<g id="clust4" class="cluster">
<title>cluster_AppModule_imports</title>
<polygon fill="none" stroke="black" points="232,-154 232,-271 755,-271 755,-154 232,-154"/>
</g>
<g id="clust6" class="cluster">
<title>cluster_AppModule_bootstrap</title>
<polygon fill="none" stroke="black" points="548,-349 548,-401 672,-401 672,-349 548,-349"/>
</g>
<g id="clust8" class="cluster">
<title>cluster_PagesModule</title>
<polygon fill="none" stroke="black" stroke-dasharray="1,5" points="703,-70 703,-138 1542,-138 1542,-70 703,-70"/>
</g>
<g id="clust9" class="cluster">
<title>cluster_PagesModule_declarations</title>
<polygon fill="none" stroke="black" points="847,-78 847,-130 1534,-130 1534,-78 847,-78"/>
</g>
<g id="clust14" class="cluster">
<title>cluster_PagesModule_imports</title>
<polygon fill="none" stroke="black" points="711,-78 711,-130 839,-130 839,-78 711,-78"/>
</g>
<g id="clust18" class="cluster">
<title>cluster_SharedModule</title>
<polygon fill="none" stroke="black" stroke-dasharray="1,5" points="8,-70 8,-138 695,-138 695,-70 8,-70"/>
</g>
<g id="clust19" class="cluster">
<title>cluster_SharedModule_declarations</title>
<polygon fill="none" stroke="black" points="420,-78 420,-130 687,-130 687,-78 420,-78"/>
</g>
<g id="clust22" class="cluster">
<title>cluster_SharedModule_imports</title>
<polygon fill="none" stroke="black" points="298,-78 298,-130 412,-130 412,-78 298,-78"/>
</g>
<g id="clust23" class="cluster">
<title>cluster_SharedModule_exports</title>
<polygon fill="none" stroke="black" points="16,-78 16,-130 290,-130 290,-78 16,-78"/>
</g>
<!-- AppComponent -->
<g id="node1" class="node">
<title>AppComponent</title>
<polygon fill="#ffffb3" stroke="black" points="876.94,-263 771.06,-263 771.06,-227 876.94,-227 876.94,-263"/>
<text text-anchor="middle" x="824" y="-240.8" font-family="Times,serif" font-size="14.00">AppComponent</text>
</g>
<!-- AppModule -->
<g id="node2" class="node">
<title>AppModule</title>
<polygon fill="#8dd3c7" stroke="black" points="651.66,-328 648.66,-332 627.66,-332 624.66,-328 568.34,-328 568.34,-292 651.66,-292 651.66,-328"/>
<text text-anchor="middle" x="610" y="-305.8" font-family="Times,serif" font-size="14.00">AppModule</text>
</g>
<!-- AppComponent&#45;&gt;AppModule -->
<g id="edge1" class="edge">
<title>AppComponent&#45;&gt;AppModule</title>
<path fill="none" stroke="black" d="M824,-263.28C824,-284.32 824,-316 824,-316 824,-316 661.77,-316 661.77,-316"/>
<polygon fill="black" stroke="black" points="661.77,-312.5 651.77,-316 661.77,-319.5 661.77,-312.5"/>
</g>
<!-- AppComponent  -->
<g id="node8" class="node">
<title>AppComponent </title>
<polygon fill="#80b1d3" stroke="black" points="664.44,-393 555.56,-393 555.56,-357 664.44,-357 664.44,-393"/>
<text text-anchor="middle" x="610" y="-370.8" font-family="Times,serif" font-size="14.00">AppComponent </text>
</g>
<!-- AppModule&#45;&gt;AppComponent  -->
<g id="edge7" class="edge">
<title>AppModule&#45;&gt;AppComponent </title>
<path fill="none" stroke="black" stroke-dasharray="1,5" d="M610,-328.11C610,-328.11 610,-346.99 610,-346.99"/>
<polygon fill="black" stroke="black" points="606.5,-346.99 610,-356.99 613.5,-346.99 606.5,-346.99"/>
</g>
<!-- BrowserModule -->
<g id="node3" class="node">
<title>BrowserModule</title>
<polygon fill="#8dd3c7" stroke="black" points="483.47,-198 480.47,-202 459.47,-202 456.47,-198 376.53,-198 376.53,-162 483.47,-162 483.47,-198"/>
<text text-anchor="middle" x="430" y="-175.8" font-family="Times,serif" font-size="14.00">BrowserModule</text>
</g>
<!-- BrowserModule&#45;&gt;AppModule -->
<g id="edge2" class="edge">
<title>BrowserModule&#45;&gt;AppModule</title>
<path fill="none" stroke="black" d="M430,-198.03C430,-232.42 430,-304 430,-304 430,-304 558.25,-304 558.25,-304"/>
<polygon fill="black" stroke="black" points="558.25,-307.5 568.25,-304 558.25,-300.5 558.25,-307.5"/>
</g>
<!-- AppRoutingModule -->
<g id="node4" class="node">
<title>AppRoutingModule</title>
<polygon fill="#8dd3c7" stroke="black" points="630.27,-198 627.27,-202 606.27,-202 603.27,-198 501.73,-198 501.73,-162 630.27,-162 630.27,-198"/>
<text text-anchor="middle" x="566" y="-175.8" font-family="Times,serif" font-size="14.00">AppRoutingModule</text>
</g>
<!-- AppRoutingModule&#45;&gt;AppModule -->
<g id="edge3" class="edge">
<title>AppRoutingModule&#45;&gt;AppModule</title>
<path fill="none" stroke="black" d="M599.28,-198.08C599.28,-198.08 599.28,-281.66 599.28,-281.66"/>
<polygon fill="black" stroke="black" points="595.78,-281.66 599.28,-291.66 602.78,-281.66 595.78,-281.66"/>
</g>
<!-- PagesModule -->
<g id="node5" class="node">
<title>PagesModule</title>
<polygon fill="#8dd3c7" stroke="black" points="747.21,-263 744.21,-267 723.21,-267 720.21,-263 654.79,-263 654.79,-227 747.21,-227 747.21,-263"/>
<text text-anchor="middle" x="701" y="-240.8" font-family="Times,serif" font-size="14.00">PagesModule</text>
</g>
<!-- PagesModule&#45;&gt;AppModule -->
<g id="edge4" class="edge">
<title>PagesModule&#45;&gt;AppModule</title>
<path fill="none" stroke="black" d="M659.68,-263.02C659.68,-280.37 659.68,-304 659.68,-304 659.68,-304 658.91,-304 658.91,-304"/>
<polygon fill="black" stroke="black" points="661.92,-300.5 651.92,-304 661.92,-307.5 661.92,-300.5"/>
</g>
<!-- SharedModule -->
<g id="node6" class="node">
<title>SharedModule</title>
<polygon fill="#8dd3c7" stroke="black" points="747.42,-198 744.42,-202 723.42,-202 720.42,-198 648.58,-198 648.58,-162 747.42,-162 747.42,-198"/>
<text text-anchor="middle" x="698" y="-175.8" font-family="Times,serif" font-size="14.00">SharedModule</text>
</g>
<!-- SharedModule&#45;&gt;AppModule -->
<g id="edge5" class="edge">
<title>SharedModule&#45;&gt;AppModule</title>
<path fill="none" stroke="black" d="M648.71,-180C643.24,-180 639.59,-180 639.59,-180 639.59,-180 639.59,-281.92 639.59,-281.92"/>
<polygon fill="black" stroke="black" points="636.09,-281.92 639.59,-291.92 643.09,-281.92 636.09,-281.92"/>
</g>
<!-- SharedModule&#45;&gt;PagesModule -->
<g id="edge13" class="edge">
<title>SharedModule&#45;&gt;PagesModule</title>
<path fill="none" stroke="black" d="M670.26,-198.11C670.26,-198.11 670.26,-216.99 670.26,-216.99"/>
<polygon fill="black" stroke="black" points="666.76,-216.99 670.26,-226.99 673.76,-216.99 666.76,-216.99"/>
</g>
<!-- NavbarComponent  -->
<g id="node17" class="node">
<title>NavbarComponent </title>
<polygon fill="#fb8072" stroke="black" points="282.03,-122 155.97,-122 155.97,-86 282.03,-86 282.03,-122"/>
<text text-anchor="middle" x="219" y="-99.8" font-family="Times,serif" font-size="14.00">NavbarComponent </text>
</g>
<!-- SharedModule&#45;&gt;NavbarComponent  -->
<g id="edge18" class="edge">
<title>SharedModule&#45;&gt;NavbarComponent </title>
<path fill="none" stroke="black" stroke-dasharray="5,2" d="M658.95,-161.81C658.95,-153.72 658.95,-146 658.95,-146 658.95,-146 260.84,-146 260.84,-146 260.84,-146 260.84,-132.06 260.84,-132.06"/>
<polygon fill="black" stroke="black" points="264.34,-132.06 260.84,-122.06 257.34,-132.06 264.34,-132.06"/>
</g>
<!-- ErrorComponent  -->
<g id="node18" class="node">
<title>ErrorComponent </title>
<polygon fill="#fb8072" stroke="black" points="138.37,-122 23.63,-122 23.63,-86 138.37,-86 138.37,-122"/>
<text text-anchor="middle" x="81" y="-99.8" font-family="Times,serif" font-size="14.00">ErrorComponent </text>
</g>
<!-- SharedModule&#45;&gt;ErrorComponent  -->
<g id="edge19" class="edge">
<title>SharedModule&#45;&gt;ErrorComponent </title>
<path fill="none" stroke="black" stroke-dasharray="5,2" d="M653.87,-161.94C653.87,-157.51 653.87,-154 653.87,-154 653.87,-154 81,-154 81,-154 81,-154 81,-132.05 81,-132.05"/>
<polygon fill="black" stroke="black" points="84.5,-132.05 81,-122.05 77.5,-132.05 84.5,-132.05"/>
</g>
<!-- HttpClientModule -->
<g id="node7" class="node">
<title>HttpClientModule</title>
<polygon fill="#8dd3c7" stroke="black" points="358.16,-198 355.16,-202 334.16,-202 331.16,-198 239.84,-198 239.84,-162 358.16,-162 358.16,-198"/>
<text text-anchor="middle" x="299" y="-175.8" font-family="Times,serif" font-size="14.00">HttpClientModule</text>
</g>
<!-- HttpClientModule&#45;&gt;AppModule -->
<g id="edge6" class="edge">
<title>HttpClientModule&#45;&gt;AppModule</title>
<path fill="none" stroke="black" d="M299,-198.06C299,-235.05 299,-316 299,-316 299,-316 558.06,-316 558.06,-316"/>
<polygon fill="black" stroke="black" points="558.06,-319.5 568.06,-316 558.06,-312.5 558.06,-319.5"/>
</g>
<!-- HomeComponent -->
<g id="node9" class="node">
<title>HomeComponent</title>
<polygon fill="#ffffb3" stroke="black" points="1133.55,-122 1018.45,-122 1018.45,-86 1133.55,-86 1133.55,-122"/>
<text text-anchor="middle" x="1076" y="-99.8" font-family="Times,serif" font-size="14.00">HomeComponent</text>
</g>
<!-- HomeComponent&#45;&gt;PagesModule -->
<g id="edge8" class="edge">
<title>HomeComponent&#45;&gt;PagesModule</title>
<path fill="none" stroke="black" d="M1076,-122.46C1076,-152.83 1076,-210 1076,-210 1076,-210 701,-210 701,-210 701,-210 701,-216.68 701,-216.68"/>
<polygon fill="black" stroke="black" points="697.5,-216.68 701,-226.68 704.5,-216.68 697.5,-216.68"/>
</g>
<!-- SearchImageComponent -->
<g id="node10" class="node">
<title>SearchImageComponent</title>
<polygon fill="#ffffb3" stroke="black" points="1306.4,-122 1151.6,-122 1151.6,-86 1306.4,-86 1306.4,-122"/>
<text text-anchor="middle" x="1229" y="-99.8" font-family="Times,serif" font-size="14.00">SearchImageComponent</text>
</g>
<!-- SearchImageComponent&#45;&gt;PagesModule -->
<g id="edge9" class="edge">
<title>SearchImageComponent&#45;&gt;PagesModule</title>
<path fill="none" stroke="black" d="M1229,-122.49C1229,-154.31 1229,-216 1229,-216 1229,-216 716.37,-216 716.37,-216 716.37,-216 716.37,-217.08 716.37,-217.08"/>
<polygon fill="black" stroke="black" points="712.87,-216.8 716.37,-226.8 719.87,-216.8 712.87,-216.8"/>
</g>
<!-- DropdownCategoriesComponent -->
<g id="node11" class="node">
<title>DropdownCategoriesComponent</title>
<polygon fill="#ffffb3" stroke="black" points="1525.57,-122 1324.43,-122 1324.43,-86 1525.57,-86 1525.57,-122"/>
<text text-anchor="middle" x="1425" y="-99.8" font-family="Times,serif" font-size="14.00">DropdownCategoriesComponent</text>
</g>
<!-- DropdownCategoriesComponent&#45;&gt;PagesModule -->
<g id="edge10" class="edge">
<title>DropdownCategoriesComponent&#45;&gt;PagesModule</title>
<path fill="none" stroke="black" d="M1425,-122.18C1425,-155.28 1425,-222 1425,-222 1425,-222 731.74,-222 731.74,-222 731.74,-222 731.74,-222.49 731.74,-222.49"/>
<polygon fill="black" stroke="black" points="728.24,-216.88 731.74,-226.88 735.24,-216.88 728.24,-216.88"/>
</g>
<!-- CardModalComponent -->
<g id="node12" class="node">
<title>CardModalComponent</title>
<polygon fill="#ffffb3" stroke="black" points="1000.59,-122 855.41,-122 855.41,-86 1000.59,-86 1000.59,-122"/>
<text text-anchor="middle" x="928" y="-99.8" font-family="Times,serif" font-size="14.00">CardModalComponent</text>
</g>
<!-- CardModalComponent&#45;&gt;PagesModule -->
<g id="edge11" class="edge">
<title>CardModalComponent&#45;&gt;PagesModule</title>
<path fill="none" stroke="black" d="M866.09,-122.34C866.09,-151.21 866.09,-204 866.09,-204 866.09,-204 685.63,-204 685.63,-204 685.63,-204 685.63,-216.9 685.63,-216.9"/>
<polygon fill="black" stroke="black" points="682.13,-216.9 685.63,-226.9 689.13,-216.9 682.13,-216.9"/>
</g>
<!-- CommonModule -->
<g id="node13" class="node">
<title>CommonModule</title>
<polygon fill="#8dd3c7" stroke="black" points="830.67,-122 827.67,-126 806.67,-126 803.67,-122 719.33,-122 719.33,-86 830.67,-86 830.67,-122"/>
<text text-anchor="middle" x="775" y="-99.8" font-family="Times,serif" font-size="14.00">CommonModule</text>
</g>
<!-- CommonModule&#45;&gt;PagesModule -->
<g id="edge12" class="edge">
<title>CommonModule&#45;&gt;PagesModule</title>
<path fill="none" stroke="black" d="M759.25,-122.14C759.25,-160.23 759.25,-245 759.25,-245 759.25,-245 757.18,-245 757.18,-245"/>
<polygon fill="black" stroke="black" points="757.18,-241.5 747.18,-245 757.18,-248.5 757.18,-241.5"/>
</g>
<!-- CommonModule&#45;&gt;SharedModule -->
<g id="edge16" class="edge">
<title>CommonModule&#45;&gt;SharedModule</title>
<path fill="none" stroke="black" d="M733.19,-122.01C733.19,-122.01 733.19,-151.85 733.19,-151.85"/>
<polygon fill="black" stroke="black" points="729.69,-151.85 733.19,-161.85 736.69,-151.85 729.69,-151.85"/>
</g>
<!-- NavbarComponent -->
<g id="node14" class="node">
<title>NavbarComponent</title>
<polygon fill="#ffffb3" stroke="black" points="679.03,-122 556.97,-122 556.97,-86 679.03,-86 679.03,-122"/>
<text text-anchor="middle" x="618" y="-99.8" font-family="Times,serif" font-size="14.00">NavbarComponent</text>
</g>
<!-- NavbarComponent&#45;&gt;SharedModule -->
<g id="edge14" class="edge">
<title>NavbarComponent&#45;&gt;SharedModule</title>
<path fill="none" stroke="black" d="M674.19,-122.01C674.19,-122.01 674.19,-151.85 674.19,-151.85"/>
<polygon fill="black" stroke="black" points="670.69,-151.85 674.19,-161.85 677.69,-151.85 670.69,-151.85"/>
</g>
<!-- ErrorComponent -->
<g id="node15" class="node">
<title>ErrorComponent</title>
<polygon fill="#ffffb3" stroke="black" points="538.37,-122 427.63,-122 427.63,-86 538.37,-86 538.37,-122"/>
<text text-anchor="middle" x="483" y="-99.8" font-family="Times,serif" font-size="14.00">ErrorComponent</text>
</g>
<!-- ErrorComponent&#45;&gt;SharedModule -->
<g id="edge15" class="edge">
<title>ErrorComponent&#45;&gt;SharedModule</title>
<path fill="none" stroke="black" d="M520.02,-122.06C520.02,-126.49 520.02,-130 520.02,-130 520.02,-130 669.11,-130 669.11,-130 669.11,-130 669.11,-151.95 669.11,-151.95"/>
<polygon fill="black" stroke="black" points="665.61,-151.95 669.11,-161.95 672.61,-151.95 665.61,-151.95"/>
</g>
<!-- RouterModule -->
<g id="node16" class="node">
<title>RouterModule</title>
<polygon fill="#8dd3c7" stroke="black" points="403.65,-122 400.65,-126 379.65,-126 376.65,-122 306.35,-122 306.35,-86 403.65,-86 403.65,-122"/>
<text text-anchor="middle" x="355" y="-99.8" font-family="Times,serif" font-size="14.00">RouterModule</text>
</g>
<!-- RouterModule&#45;&gt;SharedModule -->
<g id="edge17" class="edge">
<title>RouterModule&#45;&gt;SharedModule</title>
<path fill="none" stroke="black" d="M390.17,-122.19C390.17,-130.28 390.17,-138 390.17,-138 390.17,-138 664.03,-138 664.03,-138 664.03,-138 664.03,-151.94 664.03,-151.94"/>
<polygon fill="black" stroke="black" points="660.53,-151.94 664.03,-161.94 667.53,-151.94 660.53,-151.94"/>
</g>
</g>
</svg>
